Coordinates
version=1
nRows=27
nColumns=19
inDegrees=yes

Units are S.I. units (second, meters, Newtons, ...)
If the header above contains a line with 'inDegrees', this indicates whether rotational values are in degrees (yes) or radians (no).

endheader
time	pelvis_to_ground_rx	pelvis_to_ground_ry	pelvis_to_ground_rz	pelvis_to_ground_tx	pelvis_to_ground_ty	pelvis_to_ground_tz	left_hip_abduction	left_hip_rotation	left_hip_flexion	left_knee_flexion	left_ankle_flexion	left_subtalar_angle	right_hip_abduction	right_hip_rotation	right_hip_flexion	right_knee_flexion	right_ankle_flexion	right_subtalar_angle
      2.77000000	     99.06469813	     -0.86621418	     -3.28119418	      1.23001670	     -0.68721520	      0.70591794	    -18.55272918	     -4.60548579	     26.92456167	    -38.68915777	      5.86368290	    -14.26711320	     -2.26529331	    -17.71175109	     15.54320651	    -65.15451094	     -9.51873489	     -9.72526503
      2.78000000	     99.25145536	     -0.49199399	     -3.55456434	      1.24005883	     -0.68664955	      0.70864323	    -18.70564683	     -4.50636659	     25.64832564	    -37.41349684	      5.90872511	    -13.91268891	     -1.87761971	    -17.81892862	     17.72841361	    -66.07936248	     -9.20930671	     -9.97312381
      2.79000000	     99.30025920	     -0.06608619	     -3.71527672	      1.24994919	     -0.68618366	      0.71150924	    -18.65757849	     -4.63315589	     24.18203597	    -36.00655007	      5.87497890	    -13.59593045	     -1.40227863	    -17.68181796	     19.73589508	    -66.65925560	     -8.82872378	    -10.21181515
      2.80000000	     99.25741011	      0.35292698	     -3.83990883	      1.25970427	     -0.68578468	      0.71438942	    -18.50519577	     -4.75929354	     22.70598209	    -34.59798170	      5.73372770	    -13.07108594	     -0.90237106	    -17.27853587	     21.65897342	    -66.95541343	     -8.08576712	    -10.60318412
      2.81000000	     99.12169322	      0.82060443	     -3.83250554	      1.26936587	     -0.68546269	      0.71725602	    -18.21731484	     -5.17877618	     21.04758503	    -33.13941129	      5.70234424	    -12.82680234	     -0.43877825	    -16.70292988	     23.34888578	    -66.95090162	     -7.77353722	    -10.76967948
      2.82000000	     98.83031436	      1.33702759	     -3.84239270	      1.27889919	     -0.68531018	      0.72004664	    -17.75722450	     -5.70733689	     19.48685653	    -31.81579194	      5.46682407	    -12.37947874	      0.10542893	    -15.93122453	     24.95838416	    -66.65407897	     -6.90821391	    -11.25224641
      2.83000000	     98.57541322	      1.86072514	     -3.71835766	      1.28836971	     -0.68515456	      0.72263775	    -17.34540078	     -6.39960288	     17.78830046	    -30.50516730	      5.40057707	    -12.13406287	      0.43040035	    -15.06304999	     26.35293472	    -66.17041366	     -6.55027697	    -11.45870067
      2.84000000	     98.25072462	      2.42906366	     -3.60912112	      1.29772791	     -0.68514375	      0.72501579	    -16.87180735	     -7.12997712	     16.21948358	    -29.38918042	      5.12360197	    -11.78092082	      0.71421893	    -14.08980909	     27.67386621	    -65.47303725	     -5.69517302	    -12.03090875
      2.85000000	     97.91873615	      3.06725100	     -3.39785173	      1.30702063	     -0.68520370	      0.72712498	    -16.41482045	     -7.99109364	     14.60276495	    -28.40306235	      5.06124736	    -11.57801766	      0.84698403	    -13.14400971	     28.80173366	    -64.60010975	     -5.43202198	    -12.21528383
      2.86000000	     97.61138920	      3.73834435	     -3.19846454	      1.31621921	     -0.68534874	      0.72894124	    -16.00511910	     -8.83801951	     13.10050963	    -27.58720814	      4.95196153	    -11.36645178	      0.83090540	    -12.18650192	     29.87411805	    -63.57955158	     -5.09203880	    -12.47661115
      2.87000000	     97.34038344	      4.44994950	     -2.98656084	      1.32533350	     -0.68556086	      0.73043385	    -15.65674198	     -9.62359837	     11.69340184	    -26.95139220	      4.82315022	    -11.15370677	      0.65117392	    -11.26447376	     30.86260420	    -62.41969828	     -4.75882389	    -12.74710080
      2.88000000	     97.12690877	      5.18341947	     -2.77957716	      1.33436623	     -0.68583553	      0.73158221	    -15.38516357	    -10.25834776	     10.41449302	    -26.50763710	      4.58557753	    -10.87712714	      0.29746980	    -10.36886441	     31.78678081	    -61.13368664	     -4.31713899	    -13.16083365
      2.89000000	     96.95015481	      5.98243086	     -2.57271766	      1.34335605	     -0.68618761	      0.73242509	    -15.15949327	    -10.85631344	      9.21682486	    -26.21224455	      4.54693041	    -10.69218362	     -0.18752852	     -9.61312698	     32.62413489	    -59.69356428	     -4.24490348	    -13.20239384
      2.90000000	     96.83855456	      6.80359837	     -2.38540022	      1.35229631	     -0.68659226	      0.73294238	    -15.00381390	    -11.33225771	      8.13612557	    -26.07758567	      4.50488599	    -10.48162590	     -0.82206696	     -8.92982111	     33.39046649	    -58.11098702	     -4.19550500	    -13.18980490
      2.91000000	     96.78600027	      7.64448492	     -2.22157562	      1.36123297	     -0.68704857	      0.73316326	    -14.90318163	    -11.69348112	      7.15185635	    -26.06376325	      4.48010373	    -10.23248408	     -1.57851887	     -8.34534139	     34.07125019	    -56.37036622	     -4.20342940	    -13.08438956
      2.92000000	     96.78363686	      8.49943724	     -2.07547171	      1.37019312	     -0.68755788	      0.73310729	    -14.84781443	    -11.97012621	      6.24913273	    -26.17039021	      4.50034570	     -9.92102502	     -2.42634277	     -7.85850936	     34.64246250	    -54.46262557	     -4.30377153	    -12.83463469
      2.93000000	     96.81546398	      9.35212359	     -1.94223192	      1.37922905	     -0.68811250	      0.73280259	    -14.81958216	    -12.17922838	      5.40444623	    -26.37215916	      4.60145026	     -9.54805831	     -3.32423580	     -7.46811609	     35.08268266	    -52.38043189	     -4.52913757	    -12.40121993
      2.94000000	     96.82651601	     10.19052067	     -1.87341179	      1.38835842	     -0.68876154	      0.73226836	    -14.72006308	    -12.09676300	      4.78611206	    -26.81490469	      5.12141807	     -8.58948887	     -4.17681162	     -7.14561921	     35.43750812	    -50.11753733	     -4.87403310	    -11.31499779
      2.95000000	     96.93040196	     11.00029651	     -1.73713814	      1.39767173	     -0.68939350	      0.73151455	    -14.76645666	    -12.31263844	      3.96516135	    -27.15432089	      5.28691881	     -8.37661711	     -5.12055588	     -6.86883651	     35.54772861	    -47.73122427	     -5.05261811	    -10.96380928
      2.96000000	     97.00261764	     11.78740235	     -1.60107249	      1.40718387	     -0.69010348	      0.73057923	    -14.76587495	    -12.45586813	      3.21499474	    -27.64227062	      5.56803914	     -8.13887666	     -5.97096147	     -6.65217369	     35.48860002	    -45.20830168	     -5.59898396	    -10.29676776
      2.97000000	     97.05768719	     12.52464237	     -1.56725837	      1.41692018	     -0.69089587	      0.72949500	    -14.70616168	    -12.53654357	      2.64276740	    -28.27504352	      6.02951266	     -7.78069673	     -6.72232320	     -6.43623795	     35.36720390	    -42.58601686	     -6.27811972	     -9.43035572
      2.98000000	     97.11503247	     13.23551634	     -1.41765547	      1.42697047	     -0.69172061	      0.72822592	    -14.69325205	    -12.72305207	      1.92014790	    -28.95687232	      6.44280702	     -7.50353520	     -7.39377231	     -6.27690285	     34.97192655	    -39.96138730	     -6.89966226	     -8.74579995
      2.99000000	     97.17123424	     13.89636707	     -1.18639629	      1.43734966	     -0.69257445	      0.72679443	    -14.71074695	    -12.95566106	      1.09798940	    -29.69254785	      6.68094801	     -7.40028378	     -7.97298700	     -6.12049628	     34.35377377	    -37.39095557	     -7.35769280	     -8.33135739
      3.00000000	     97.17627653	     14.52153380	     -1.05801125	      1.44802743	     -0.69353278	      0.72526731	    -14.63616928	    -13.17892724	      0.46335402	    -30.59863654	      7.14362453	     -7.26158974	     -8.36922989	     -5.99419137	     33.72084555	    -34.89847048	     -8.24471955	     -7.70386229
      3.01000000	     97.17139427	     15.05849496	     -0.80799596	      1.45905816	     -0.69449659	      0.72359656	    -14.57978558	    -13.32456571	     -0.28812539	    -31.56421285	      7.33640201	     -7.20559823	     -8.67209260	     -5.77427886	     32.86871891	    -32.59745128	     -8.63916754	     -7.43276111
      3.02000000	     97.11459048	     15.55149397	     -0.59057580	      1.47039507	     -0.69553179	      0.72184903	    -14.44190298	    -13.41406176	     -0.92807271	    -32.67497377	      7.55972757	     -7.16447424	     -8.79406673	     -5.58060038	     31.98256961	    -30.52120443	     -9.12500572	     -7.16310625
      3.03000000	     97.00960443	     15.99140917	     -0.41215836	      1.48201630	     -0.69662087	      0.72005276	    -14.21737881	    -13.41653581	     -1.44574269	    -33.91516406	      7.74352042	     -7.09840629	     -8.75220161	     -5.38413868	     31.08831558	    -28.71996600	     -9.52592119	     -7.00162759
